<svg width="60" height="60" viewBox="0 0 60 60" fill="none" xmlns="http://www.w3.org/2000/svg">
<path d="M31 50H29V52H31V50Z" fill="black"/>
<path d="M59 52H58V16C58 14.9391 57.5786 13.9217 56.8284 13.1716C56.0783 12.4214 55.0609 12 54 12H40.93C40.96 11.668 41 11.338 41 11C41 8.08262 39.8411 5.28473 37.7782 3.22183C35.7153 1.15893 32.9174 0 30 0C27.0826 0 24.2847 1.15893 22.2218 3.22183C20.1589 5.28473 19 8.08262 19 11C19 11.338 19.04 11.668 19.07 12H6C4.93913 12 3.92172 12.4214 3.17157 13.1716C2.42143 13.9217 2 14.9391 2 16V52H1C0.734784 52 0.48043 52.1054 0.292893 52.2929C0.105357 52.4804 0 52.7348 0 53V56C0 57.0609 0.421427 58.0783 1.17157 58.8284C1.92172 59.5786 2.93913 60 4 60H56C57.0609 60 58.0783 59.5786 58.8284 58.8284C59.5786 58.0783 60 57.0609 60 56V53C60 52.7348 59.8946 52.4804 59.7071 52.2929C59.5196 52.1054 59.2652 52 59 52ZM30 2C32.0666 2.00138 34.0697 2.71393 35.673 4.01794C37.2762 5.32194 38.3818 7.13797 38.8041 9.16094C39.2264 11.1839 38.9396 13.2906 37.9919 15.1271C37.0443 16.9636 35.4934 18.418 33.6 19.246C33.4217 19.3238 33.2701 19.4519 33.1635 19.6146C33.0569 19.7773 33.0001 19.9675 33 20.162V22H31V14.414L34.707 10.707L33.293 9.293L30 12.586L26.707 9.293L25.293 10.707L29 14.414V22H27V20.162C26.9999 19.9675 26.9431 19.7773 26.8365 19.6146C26.73 19.4519 26.5783 19.3238 26.4 19.246C24.5066 18.418 22.9557 16.9636 22.0081 15.1271C21.0604 13.2906 20.7736 11.1839 21.1959 9.16094C21.6182 7.13797 22.7238 5.32194 24.327 4.01794C25.9303 2.71393 27.9334 2.00138 30 2ZM44 28V18H52V36H38V38H43V42C43 42.2652 43.1054 42.5196 43.2929 42.7071C43.4804 42.8946 43.7348 43 44 43H49V41H45V38H52V46H22V43H25V41H13V36H11V42C11 42.2652 11.1054 42.5196 11.2929 42.7071C11.4804 42.8946 11.7348 43 12 43H20V46H8V33H16V37C16 37.2652 16.1054 37.5196 16.2929 37.7071C16.4804 37.8946 16.7348 38 17 38H28V42C28 42.2652 28.1054 42.5196 28.2929 42.7071C28.4804 42.8946 28.7348 43 29 43H40V41H35V33H48C48.2652 33 48.5196 32.8946 48.7071 32.7071C48.8946 32.5196 49 32.2652 49 32V21H47V31H39V26H37V31H21V33H33V41H30V37C30 36.7348 29.8946 36.4804 29.7071 36.2929C29.5196 36.1054 29.2652 36 29 36H18V28H22V26H17C16.7348 26 16.4804 26.1054 16.2929 26.2929C16.1054 26.4804 16 26.7348 16 27V31H8V18H11V28H13V23H20V21H13V18H21.521C22.4771 19.1613 23.6612 20.1142 25 20.8V22H23V24H25V27C25 27.2652 25.1054 27.5196 25.2929 27.7071C25.4804 27.8946 25.7348 28 26 28H34C34.2652 28 34.5196 27.8946 34.7071 27.7071C34.8946 27.5196 35 27.2652 35 27V24H37V22H35V20.8C36.3388 20.1142 37.5229 19.1613 38.479 18H42V28H44ZM33 24V26H27V24H33ZM4 16C4 15.4696 4.21071 14.9609 4.58579 14.5858C4.96086 14.2107 5.46957 14 6 14H19.418C19.6224 14.6918 19.8948 15.3617 20.231 16H7C6.73478 16 6.48043 16.1054 6.29289 16.2929C6.10536 16.4804 6 16.7348 6 17V47C6 47.2652 6.10536 47.5196 6.29289 47.7071C6.48043 47.8946 6.73478 48 7 48H53C53.2652 48 53.5196 47.8946 53.7071 47.7071C53.8946 47.5196 54 47.2652 54 47V17C54 16.7348 53.8946 16.4804 53.7071 16.2929C53.5196 16.1054 53.2652 16 53 16H39.769C40.1052 15.3617 40.3776 14.6918 40.582 14H54C54.5304 14 55.0391 14.2107 55.4142 14.5858C55.7893 14.9609 56 15.4696 56 16V52H39C38.7348 52.0001 38.4805 52.1054 38.293 52.293L36.586 54H23.414L21.707 52.293C21.5195 52.1054 21.2652 52.0001 21 52H4V16ZM58 56C58 56.5304 57.7893 57.0391 57.4142 57.4142C57.0391 57.7893 56.5304 58 56 58H4C3.46957 58 2.96086 57.7893 2.58579 57.4142C2.21071 57.0391 2 56.5304 2 56V54H20.586L22.293 55.707C22.4805 55.8946 22.7348 55.9999 23 56H37C37.2652 55.9999 37.5195 55.8946 37.707 55.707L39.414 54H58V56Z" fill="black"/>
</svg>
