<svg width="234" height="46" viewBox="0 0 234 46" fill="none" xmlns="http://www.w3.org/2000/svg">
<path d="M0.683594 22.2734C1.03516 22.2474 1.35417 22.1888 1.64062 22.0977C1.92708 22.0065 2.17448 21.9089 2.38281 21.8047C2.59115 21.6875 2.77344 21.5247 2.92969 21.3164C3.09896 21.0951 3.23568 20.9062 3.33984 20.75C3.44401 20.5938 3.52865 20.3594 3.59375 20.0469C3.67188 19.7344 3.72396 19.4935 3.75 19.3242C3.78906 19.1419 3.8151 18.8685 3.82812 18.5039C3.85417 18.1263 3.86719 17.8529 3.86719 17.6836C3.86719 17.5143 3.86719 17.2279 3.86719 16.8242C3.86719 15.9779 3.86719 15.3464 3.86719 14.9297C3.88021 14.513 3.90625 13.9466 3.94531 13.2305C3.9974 12.5143 4.06901 11.9805 4.16016 11.6289C4.2513 11.2643 4.38802 10.8151 4.57031 10.2812C4.7526 9.73438 4.97396 9.33073 5.23438 9.07031C5.50781 8.79688 5.83984 8.49089 6.23047 8.15234C6.63411 7.8138 7.09635 7.56641 7.61719 7.41016C8.15104 7.25391 8.77604 7.1237 9.49219 7.01953C10.2083 6.90234 11.0026 6.84375 11.875 6.84375V8.60156C11.3542 8.60156 10.8919 8.61458 10.4883 8.64062C10.0977 8.65365 9.73307 8.71875 9.39453 8.83594C9.06901 8.9401 8.78906 9.03125 8.55469 9.10938C8.32031 9.17448 8.10547 9.33073 7.91016 9.57812C7.71484 9.82552 7.55859 10.0273 7.44141 10.1836C7.32422 10.3268 7.22005 10.6133 7.12891 11.043C7.05078 11.4596 6.99219 11.7982 6.95312 12.0586C6.91406 12.306 6.88151 12.7487 6.85547 13.3867C6.82943 14.0117 6.81641 14.5195 6.81641 14.9102C6.81641 15.2878 6.81641 15.8997 6.81641 16.7461C6.81641 16.7852 6.81641 16.8112 6.81641 16.8242C6.81641 18.7383 6.59505 20.2096 6.15234 21.2383C5.72266 22.2539 4.90885 22.9049 3.71094 23.1914C4.90885 23.4779 5.72266 24.1354 6.15234 25.1641C6.59505 26.1797 6.81641 27.6445 6.81641 29.5586C6.81641 32.332 6.89453 34.1289 7.05078 34.9492C7.27214 36.1081 7.76693 36.8828 8.53516 37.2734C9.22526 37.612 10.3385 37.7812 11.875 37.7812V39.5391C11.0026 39.5391 10.2083 39.4805 9.49219 39.3633C8.77604 39.2591 8.15104 39.1289 7.61719 38.9727C7.09635 38.8164 6.63411 38.569 6.23047 38.2305C5.83984 37.8919 5.50781 37.5859 5.23438 37.3125C4.97396 37.0521 4.7526 36.6549 4.57031 36.1211C4.38802 35.5742 4.2513 35.125 4.16016 34.7734C4.06901 34.4089 3.9974 33.8685 3.94531 33.1523C3.90625 32.4362 3.88021 31.8698 3.86719 31.4531C3.86719 31.0365 3.86719 30.4049 3.86719 29.5586C3.86719 29.1549 3.86719 28.8685 3.86719 28.6992C3.86719 28.5299 3.85417 28.263 3.82812 27.8984C3.8151 27.5208 3.78906 27.2474 3.75 27.0781C3.72396 26.8958 3.67188 26.6484 3.59375 26.3359C3.52865 26.0234 3.44401 25.7891 3.33984 25.6328C3.23568 25.4766 3.09896 25.2943 2.92969 25.0859C2.77344 24.8646 2.59115 24.7018 2.38281 24.5977C2.17448 24.4805 1.92708 24.3763 1.64062 24.2852C1.35417 24.194 1.03516 24.1354 0.683594 24.1094V22.2734ZM18.0664 40.8477H15.2148V7.66406H18.0664V40.8477ZM26.1914 40.8477H23.3398V7.66406H26.1914V40.8477ZM40.7227 22.293V24.1289C40.3711 24.1549 40.0521 24.2135 39.7656 24.3047C39.4792 24.3958 39.2318 24.5 39.0234 24.6172C38.8151 24.7214 38.6263 24.8841 38.457 25.1055C38.3008 25.3138 38.1706 25.4961 38.0664 25.6523C37.9622 25.8086 37.8711 26.043 37.793 26.3555C37.7279 26.668 37.6758 26.9154 37.6367 27.0977C37.6107 27.2669 37.5846 27.5404 37.5586 27.918C37.5456 28.2826 37.5391 28.5495 37.5391 28.7188C37.5391 28.888 37.5391 29.1745 37.5391 29.5781C37.5391 30.4245 37.5326 31.056 37.5195 31.4727C37.5195 31.8893 37.4935 32.4557 37.4414 33.1719C37.4023 33.888 37.3372 34.4284 37.2461 34.793C37.1549 35.1445 37.0182 35.5938 36.8359 36.1406C36.6536 36.6745 36.4258 37.0716 36.1523 37.332C35.8919 37.6055 35.5599 37.9115 35.1562 38.25C34.7656 38.5885 34.3034 38.8359 33.7695 38.9922C33.2487 39.1484 32.6302 39.2786 31.9141 39.3828C31.1979 39.5 30.4036 39.5586 29.5312 39.5586V37.8008C31.0677 37.8008 32.181 37.6315 32.8711 37.293C33.6393 36.9023 34.1341 36.1276 34.3555 34.9688C34.5117 34.1484 34.5898 32.3516 34.5898 29.5781C34.5898 27.6641 34.8047 26.1992 35.2344 25.1836C35.6771 24.1549 36.4974 23.4974 37.6953 23.2109C36.4974 22.9245 35.6771 22.2734 35.2344 21.2578C34.8047 20.2292 34.5898 18.7578 34.5898 16.8438C34.5898 16.8307 34.5898 16.8047 34.5898 16.7656C34.5898 15.9193 34.5898 15.3073 34.5898 14.9297C34.5898 14.5391 34.5768 14.0312 34.5508 13.4062C34.5247 12.7682 34.4922 12.3255 34.4531 12.0781C34.4141 11.8177 34.349 11.4792 34.2578 11.0625C34.1797 10.6328 34.082 10.3464 33.9648 10.2031C33.8477 10.0469 33.6914 9.84505 33.4961 9.59766C33.3008 9.35026 33.0859 9.19401 32.8516 9.12891C32.6172 9.05078 32.3307 8.95964 31.9922 8.85547C31.6667 8.73828 31.3021 8.67318 30.8984 8.66016C30.5078 8.63411 30.0521 8.62109 29.5312 8.62109V6.86328C30.4036 6.86328 31.1979 6.92188 31.9141 7.03906C32.6302 7.14323 33.2487 7.27344 33.7695 7.42969C34.3034 7.58594 34.7656 7.83333 35.1562 8.17188C35.5599 8.51042 35.8919 8.81641 36.1523 9.08984C36.4258 9.35026 36.6536 9.75391 36.8359 10.3008C37.0182 10.8346 37.1549 11.2839 37.2461 11.6484C37.3372 12 37.4023 12.5339 37.4414 13.25C37.4935 13.9661 37.5195 14.5326 37.5195 14.9492C37.5326 15.3659 37.5391 15.9974 37.5391 16.8438C37.5391 17.2474 37.5391 17.5339 37.5391 17.7031C37.5391 17.8724 37.5456 18.1458 37.5586 18.5234C37.5846 18.888 37.6107 19.1615 37.6367 19.3438C37.6758 19.513 37.7279 19.7539 37.793 20.0664C37.8711 20.3789 37.9622 20.6133 38.0664 20.7695C38.1706 20.9258 38.3008 21.1146 38.457 21.3359C38.6263 21.5443 38.8151 21.707 39.0234 21.8242C39.2318 21.9284 39.4792 22.026 39.7656 22.1172C40.0521 22.2083 40.3711 22.2669 40.7227 22.293Z" fill="black"/>
<path d="M48.3047 24.125L54 6.96875H56.25L61.9688 24.125H60.2109L58.6406 19.4492H51.5156L50.0156 24.125H48.3047ZM55.0664 8.16406C54.9492 8.52344 54.7539 9.14453 54.4805 10.0273C54.2148 10.9023 54.0195 11.5391 53.8945 11.9375L51.9141 18.1719H58.2422L56.25 11.9258C55.7969 10.5195 55.4023 9.26562 55.0664 8.16406ZM77.1094 28.168L74.1797 23.7734C73.8594 23.9219 73.5156 24.043 73.1484 24.1367C72.7812 24.2305 72.3984 24.3008 72 24.3477C71.6016 24.3945 71.1797 24.418 70.7344 24.418C69.5859 24.418 68.582 24.2539 67.7227 23.9258C66.8633 23.5977 66.1211 23.082 65.4961 22.3789C64.8711 21.6758 64.3984 20.7461 64.0781 19.5898C63.7656 18.4336 63.6094 17.0547 63.6094 15.4531C63.6094 13.8906 63.7695 12.543 64.0898 11.4102C64.418 10.2695 64.8945 9.35547 65.5195 8.66797C66.1445 7.97266 66.8867 7.46484 67.7461 7.14453C68.6133 6.81641 69.6133 6.65234 70.7461 6.65234C71.8867 6.65234 72.8867 6.81641 73.7461 7.14453C74.6133 7.47266 75.3633 7.98047 75.9961 8.66797C76.6289 9.35547 77.1055 10.2695 77.4258 11.4102C77.7539 12.543 77.918 13.8867 77.918 15.4414C77.918 19.0898 77.0625 21.6172 75.3516 23.0234L78.375 27.207L77.1094 28.168ZM70.7344 8.02344C69.9219 8.02344 69.207 8.13672 68.5898 8.36328C67.9805 8.58984 67.4727 8.91016 67.0664 9.32422C66.668 9.73047 66.3438 10.2461 66.0938 10.8711C65.8438 11.4961 65.6641 12.1797 65.5547 12.9219C65.4531 13.6562 65.4023 14.4961 65.4023 15.4414C65.4023 18.0742 65.8086 20 66.6211 21.2188C67.4336 22.4297 68.8086 23.0352 70.7461 23.0352C72.6914 23.0352 74.0703 22.4336 74.8828 21.2305C75.6953 20.0273 76.1016 18.1016 76.1016 15.4531C76.1016 14.5078 76.0469 13.6641 75.9375 12.9219C75.8359 12.1797 75.6562 11.4961 75.3984 10.8711C75.1484 10.2461 74.8203 9.73047 74.4141 9.32422C74.0078 8.91016 73.4961 8.58984 72.8789 8.36328C72.2695 8.13672 71.5547 8.02344 70.7344 8.02344ZM80.4375 19.4375V18.1367H86.2969V19.4375H80.4375ZM95.4023 8.30469H91.1953V22.7891H94.7461C95.957 22.7891 96.9688 22.6602 97.7812 22.4023C98.5938 22.1367 99.25 21.7031 99.75 21.1016C100.258 20.5 100.617 19.75 100.828 18.8516C101.047 17.9531 101.156 16.832 101.156 15.4883C101.156 14.2852 101.066 13.2617 100.887 12.418C100.707 11.5664 100.402 10.8242 99.9727 10.1914C99.543 9.55078 98.9492 9.07812 98.1914 8.77344C97.4414 8.46094 96.5117 8.30469 95.4023 8.30469ZM89.4844 6.96875H95.3906C96.6328 6.96875 97.7031 7.11719 98.6016 7.41406C99.5 7.70313 100.27 8.17969 100.91 8.84375C101.559 9.5 102.039 10.3789 102.352 11.4805C102.672 12.5742 102.832 13.9062 102.832 15.4766C102.832 17.5547 102.559 19.2305 102.012 20.5039C101.465 21.7773 100.645 22.6992 99.5508 23.2695C98.4648 23.8398 97.0508 24.125 95.3086 24.125H89.4844V6.96875ZM117.375 24.125H105.891V6.96875H117.246V8.28125H107.602V14.3047H115.992V15.6523H107.602V22.8008H117.375V24.125ZM123.574 24.125L117.703 6.96875H119.52L122.953 17.1406C123.039 17.3906 123.258 18.0547 123.609 19.1328C123.969 20.2031 124.242 21.0234 124.43 21.5938C124.617 21.0312 124.887 20.2383 125.238 19.2148C125.59 18.1914 125.828 17.5 125.953 17.1406L129.328 6.96875H131.062L125.191 24.125H123.574ZM144.422 24.125H132.938V6.96875H144.293V8.28125H134.648V14.3047H143.039V15.6523H134.648V22.8008H144.422V24.125ZM156.809 24.125H146.344V6.96875H148.055V22.8008H156.809V24.125ZM165.035 6.65234C166.176 6.65234 167.176 6.81641 168.035 7.14453C168.902 7.47266 169.652 7.98047 170.285 8.66797C170.918 9.35547 171.395 10.2695 171.715 11.4102C172.043 12.543 172.207 13.8867 172.207 15.4414C172.207 18.5664 171.602 20.8438 170.391 22.2734C169.18 23.7031 167.391 24.418 165.023 24.418C163.875 24.418 162.871 24.2539 162.012 23.9258C161.152 23.5977 160.41 23.082 159.785 22.3789C159.16 21.6758 158.688 20.7461 158.367 19.5898C158.055 18.4336 157.898 17.0547 157.898 15.4531C157.898 13.8906 158.059 12.543 158.379 11.4102C158.707 10.2695 159.184 9.35547 159.809 8.66797C160.434 7.97266 161.176 7.46484 162.035 7.14453C162.902 6.81641 163.902 6.65234 165.035 6.65234ZM165.023 8.02344C164.211 8.02344 163.496 8.13672 162.879 8.36328C162.27 8.58984 161.762 8.91016 161.355 9.32422C160.957 9.73047 160.633 10.2461 160.383 10.8711C160.133 11.4961 159.953 12.1797 159.844 12.9219C159.742 13.6562 159.691 14.4961 159.691 15.4414C159.691 18.0742 160.098 20 160.91 21.2188C161.723 22.4297 163.098 23.0352 165.035 23.0352C166.98 23.0352 168.359 22.4336 169.172 21.2305C169.984 20.0273 170.391 18.1016 170.391 15.4531C170.391 14.5078 170.336 13.6641 170.227 12.9219C170.125 12.1797 169.945 11.4961 169.688 10.8711C169.438 10.2461 169.109 9.73047 168.703 9.32422C168.297 8.91016 167.785 8.58984 167.168 8.36328C166.559 8.13672 165.844 8.02344 165.023 8.02344ZM175.289 24.125V6.96875H180.34C183.137 6.96875 185.109 7.32031 186.258 8.02344C187.406 8.71875 187.98 9.93359 187.98 11.668C187.98 12.4648 187.879 13.1484 187.676 13.7188C187.48 14.2812 187.184 14.7578 186.785 15.1484C186.387 15.5391 185.844 15.8477 185.156 16.0742C184.477 16.293 183.699 16.4492 182.824 16.543C181.949 16.6367 180.891 16.6836 179.648 16.6836H177.047V24.125H175.289ZM177.117 8.30469V15.3594H180.305C181.195 15.3594 181.949 15.3281 182.566 15.2656C183.184 15.1953 183.738 15.082 184.23 14.9258C184.723 14.7695 185.109 14.5547 185.391 14.2812C185.672 14.0078 185.883 13.668 186.023 13.2617C186.172 12.8477 186.246 12.3477 186.246 11.7617C186.246 11.1758 186.172 10.6836 186.023 10.2852C185.875 9.87891 185.656 9.54688 185.367 9.28906C185.086 9.02344 184.688 8.82031 184.172 8.67969C183.656 8.53906 183.082 8.44141 182.449 8.38672C181.816 8.33203 181.023 8.30469 180.07 8.30469H177.117ZM201.469 24.125H189.984V6.96875H201.34V8.28125H191.695V14.3047H200.086V15.6523H191.695V22.8008H201.469V24.125ZM215.883 11.5273C215.883 12.6992 215.578 13.6523 214.969 14.3867C214.367 15.1133 213.438 15.6445 212.18 15.9805L216.164 24.125H214.336L210.445 16.2383H205.09V24.125H203.391V6.96875H209.59C211.816 6.96875 213.422 7.33984 214.406 8.08203C215.391 8.81641 215.883 9.96484 215.883 11.5273ZM205.09 8.23438V14.9141H209.203C209.766 14.9141 210.258 14.8945 210.68 14.8555C211.109 14.8164 211.551 14.7266 212.004 14.5859C212.465 14.4453 212.84 14.2578 213.129 14.0234C213.426 13.7891 213.668 13.4648 213.855 13.0508C214.043 12.6289 214.137 12.1289 214.137 11.5508C214.137 10.957 214.047 10.4531 213.867 10.0391C213.688 9.61719 213.461 9.29297 213.188 9.06641C212.922 8.83203 212.566 8.65234 212.121 8.52734C211.684 8.39453 211.273 8.3125 210.891 8.28125C210.508 8.25 210.039 8.23438 209.484 8.23438H205.09ZM223.969 6.75781C225.352 6.75781 226.52 6.98828 227.473 7.44922C228.434 7.91016 229.254 8.66016 229.934 9.69922L228.668 10.6367C228.207 9.82422 227.586 9.20703 226.805 8.78516C226.023 8.35547 225.16 8.14062 224.215 8.14062C222.988 8.14062 221.988 8.36719 221.215 8.82031C220.441 9.27344 220.055 9.96875 220.055 10.9062C220.055 11.2734 220.137 11.6094 220.301 11.9141C220.465 12.2188 220.66 12.4688 220.887 12.6641C221.121 12.8594 221.43 13.0508 221.812 13.2383C222.203 13.4258 222.551 13.5703 222.855 13.6719C223.168 13.7734 223.555 13.8984 224.016 14.0469C224.477 14.1953 224.832 14.3164 225.082 14.4102C225.605 14.6133 226.035 14.7852 226.371 14.9258C226.707 15.0586 227.078 15.2266 227.484 15.4297C227.891 15.6328 228.219 15.8242 228.469 16.0039C228.719 16.1758 228.973 16.3867 229.23 16.6367C229.488 16.8867 229.684 17.1484 229.816 17.4219C229.957 17.6953 230.07 18.0117 230.156 18.3711C230.25 18.7227 230.297 19.1055 230.297 19.5195C230.297 21.0586 229.719 22.2617 228.562 23.1289C227.414 23.9883 225.871 24.418 223.934 24.418C223.379 24.418 222.828 24.3711 222.281 24.2773C221.742 24.1836 221.191 24.0234 220.629 23.7969C220.074 23.5703 219.574 23.2852 219.129 22.9414C218.684 22.5977 218.289 22.1523 217.945 21.6055C217.609 21.0586 217.379 20.4414 217.254 19.7539L218.695 19.1328C219.047 20.4219 219.66 21.3789 220.535 22.0039C221.418 22.6289 222.586 22.9414 224.039 22.9414C224.484 22.9414 224.91 22.9102 225.316 22.8477C225.723 22.7773 226.121 22.6602 226.512 22.4961C226.91 22.332 227.254 22.1289 227.543 21.8867C227.832 21.6367 228.062 21.3164 228.234 20.9258C228.414 20.5273 228.504 20.0781 228.504 19.5781C228.504 19.2578 228.461 18.9648 228.375 18.6992C228.289 18.4336 228.199 18.207 228.105 18.0195C228.012 17.8242 227.824 17.625 227.543 17.4219C227.262 17.2188 227.039 17.0625 226.875 16.9531C226.711 16.8359 226.395 16.6836 225.926 16.4961C225.457 16.3086 225.105 16.1758 224.871 16.0977C224.645 16.0117 224.215 15.8594 223.582 15.6406C223.48 15.6016 223.402 15.5742 223.348 15.5586C221.957 15.0742 220.988 14.6797 220.441 14.375C219.184 13.6797 218.469 12.7656 218.297 11.6328C218.273 11.4453 218.262 11.25 218.262 11.0469C218.262 10.3359 218.422 9.69922 218.742 9.13672C219.062 8.57422 219.492 8.125 220.031 7.78906C220.578 7.44531 221.184 7.1875 221.848 7.01562C222.52 6.84375 223.227 6.75781 223.969 6.75781Z" fill="black"/>
<path d="M52.4639 32.6465H50.0098V41.0957H52.0811C52.7874 41.0957 53.3776 41.0205 53.8516 40.8701C54.3255 40.7152 54.7083 40.4622 55 40.1113C55.2962 39.7604 55.5059 39.3229 55.6289 38.7988C55.7565 38.2747 55.8203 37.6208 55.8203 36.8369C55.8203 36.1351 55.7679 35.5381 55.6631 35.0459C55.5583 34.5492 55.3805 34.1162 55.1299 33.7471C54.8792 33.3734 54.5329 33.0977 54.0908 32.9199C53.6533 32.7376 53.111 32.6465 52.4639 32.6465ZM49.0117 31.8672H52.457C53.1816 31.8672 53.806 31.9538 54.3301 32.127C54.8542 32.2956 55.3031 32.5736 55.6768 32.9609C56.055 33.3438 56.3353 33.8564 56.5176 34.499C56.7044 35.137 56.7979 35.9141 56.7979 36.8301C56.7979 38.0423 56.6383 39.0199 56.3193 39.7627C56.0003 40.5055 55.5218 41.0433 54.8838 41.376C54.2503 41.7087 53.4255 41.875 52.4092 41.875H49.0117V31.8672ZM58.4932 33.3848V32.1611H59.457V33.3848H58.4932ZM58.5068 41.875V34.8818H59.4775V41.875H58.5068ZM65.9648 38.1631C65.9648 37.7165 65.917 37.3245 65.8213 36.9873C65.7256 36.6455 65.6071 36.3812 65.4658 36.1943C65.3291 36.0029 65.1628 35.8503 64.9668 35.7363C64.7754 35.6178 64.5954 35.5404 64.4268 35.5039C64.2627 35.4674 64.0918 35.4492 63.9141 35.4492C63.5814 35.4492 63.2874 35.529 63.0322 35.6885C62.777 35.8434 62.5742 36.0553 62.4238 36.3242C62.278 36.5931 62.1686 36.8893 62.0957 37.2129C62.0228 37.5365 61.9863 37.8828 61.9863 38.252C61.9863 39.2318 62.1549 39.9883 62.4922 40.5215C62.834 41.0547 63.2965 41.3213 63.8799 41.3213C64.085 41.3213 64.2764 41.3008 64.4541 41.2598C64.6318 41.2142 64.8164 41.1276 65.0078 41C65.1992 40.8724 65.361 40.7061 65.4932 40.501C65.6299 40.2913 65.7415 40.0065 65.8281 39.6465C65.9193 39.2865 65.9648 38.8695 65.9648 38.3955V38.1631ZM63.9756 44.8076C62.7633 44.8076 61.9362 44.4385 61.4941 43.7002L62.0615 43.1602C62.4352 43.7617 63.0892 44.0625 64.0234 44.0625C64.6751 44.0625 65.1605 43.8551 65.4795 43.4404C65.8031 43.0257 65.9648 42.4401 65.9648 41.6836V40.9863C65.4316 41.6882 64.7253 42.0391 63.8457 42.0391C62.9525 42.0391 62.2575 41.695 61.7607 41.0068C61.264 40.3141 61.0156 39.4049 61.0156 38.2793C61.0156 37.5911 61.1182 36.985 61.3232 36.4609C61.5329 35.9323 61.8496 35.513 62.2734 35.2031C62.6973 34.8932 63.2077 34.7383 63.8047 34.7383C64.7116 34.7383 65.4567 35.0869 66.04 35.7842L66.0947 34.8818H66.874V41.7383C66.874 42.6452 66.6234 43.3835 66.1221 43.9531C65.6253 44.5228 64.9098 44.8076 63.9756 44.8076ZM68.665 33.3848V32.1611H69.6289V33.3848H68.665ZM68.6787 41.875V34.8818H69.6494V41.875H68.6787ZM74.6055 41.0205L74.7695 41.6562C74.4277 41.875 74.0267 41.9844 73.5664 41.9844C72.9648 41.9844 72.5273 41.8021 72.2539 41.4375C71.985 41.0684 71.8506 40.4736 71.8506 39.6533V35.5586H70.8047V34.8818H71.9121V32.6465L72.8213 32.3936V34.8818H74.3525V35.5586H72.8213V40.0908C72.8213 40.8656 73.1357 41.2529 73.7646 41.2529C73.9743 41.2529 74.2546 41.1755 74.6055 41.0205ZM80.0469 40.3779V38.4229L79.377 38.5254C79.0169 38.5801 78.723 38.6302 78.4951 38.6758C78.2673 38.7168 78.0303 38.7692 77.7842 38.833C77.5381 38.8923 77.3444 38.9583 77.2031 39.0312C77.0618 39.0996 76.9297 39.1839 76.8066 39.2842C76.6882 39.3799 76.6038 39.4915 76.5537 39.6191C76.5036 39.7467 76.4785 39.8949 76.4785 40.0635C76.4785 40.9385 76.9115 41.376 77.7773 41.376C78.502 41.376 79.2585 41.0433 80.0469 40.3779ZM80.2178 41.875L80.1016 41.082C79.3223 41.7201 78.4906 42.0391 77.6064 42.0391C77.0231 42.0391 76.5355 41.8796 76.1436 41.5605C75.7562 41.237 75.5625 40.7835 75.5625 40.2002C75.5625 39.9541 75.599 39.7331 75.6719 39.5371C75.7493 39.3366 75.8382 39.168 75.9385 39.0312C76.0387 38.89 76.196 38.7624 76.4102 38.6484C76.6243 38.5299 76.8112 38.4388 76.9707 38.375C77.1348 38.3066 77.3786 38.2383 77.7021 38.1699C78.0257 38.097 78.2855 38.0446 78.4814 38.0127C78.6774 37.9762 78.9736 37.9284 79.3701 37.8691L80.0469 37.7666V37.4795C80.0469 36.7184 79.9215 36.1966 79.6709 35.9141C79.4202 35.627 78.9941 35.4834 78.3926 35.4834C78.0007 35.4834 77.6315 35.5586 77.2852 35.709C76.9434 35.8594 76.6585 36.0758 76.4307 36.3584C76.4307 36.3538 76.237 36.1693 75.8496 35.8047C76.4102 35.0938 77.276 34.7383 78.4473 34.7383C80.1608 34.7383 81.0176 35.5837 81.0176 37.2744V41.875H80.2178ZM82.8359 41.875V31.7988H83.8066V41.875H82.8359ZM92.9121 31.6826C93.819 31.6826 94.5892 31.9082 95.2227 32.3594C95.8607 32.806 96.3005 33.4668 96.542 34.3418L95.626 34.5537C95.4619 33.9157 95.152 33.4121 94.6963 33.043C94.2406 32.6693 93.6344 32.4824 92.8779 32.4824C91.7432 32.4824 90.9274 32.8516 90.4307 33.5898C89.9385 34.3281 89.6924 35.4082 89.6924 36.8301C89.6924 37.4362 89.722 37.9648 89.7812 38.416C89.8451 38.8672 89.9521 39.2751 90.1025 39.6396C90.2529 40.0042 90.4489 40.3027 90.6904 40.5352C90.9365 40.763 91.2419 40.9385 91.6064 41.0615C91.971 41.18 92.4017 41.2393 92.8984 41.2393C94.3158 41.2393 95.2568 40.5921 95.7217 39.2979L96.5762 39.5645C96.3027 40.3893 95.8379 41.0091 95.1816 41.4238C94.5299 41.8385 93.7507 42.0459 92.8438 42.0459C91.431 42.0459 90.3783 41.6335 89.6855 40.8086C88.9928 39.9792 88.6465 38.653 88.6465 36.8301C88.6465 35.071 89.0179 33.7744 89.7607 32.9404C90.5036 32.1019 91.554 31.6826 92.9121 31.6826ZM100.739 34.7383C101.637 34.7383 102.362 35.0482 102.913 35.668C103.465 36.2832 103.74 37.1833 103.74 38.3682C103.74 39.5439 103.469 40.4508 102.927 41.0889C102.389 41.7223 101.658 42.0391 100.732 42.0391C99.8073 42.0391 99.0736 41.7246 98.5312 41.0957C97.9935 40.4622 97.7246 39.5599 97.7246 38.3887C97.7246 37.1947 98.0003 36.2878 98.5518 35.668C99.1032 35.0482 99.8324 34.7383 100.739 34.7383ZM100.732 35.4492C100.35 35.4492 100.021 35.5335 99.748 35.7021C99.4746 35.8662 99.265 36.0941 99.1191 36.3857C98.9779 36.6774 98.8753 36.985 98.8115 37.3086C98.7477 37.6322 98.7158 37.9854 98.7158 38.3682C98.7158 38.6735 98.734 38.9606 98.7705 39.2295C98.807 39.4984 98.873 39.765 98.9688 40.0293C99.0645 40.2891 99.1852 40.5124 99.3311 40.6992C99.4814 40.8861 99.6751 41.0365 99.9121 41.1504C100.154 41.2643 100.429 41.3213 100.739 41.3213C101.045 41.3213 101.316 41.2643 101.553 41.1504C101.794 41.0365 101.988 40.8883 102.134 40.7061C102.284 40.5192 102.407 40.2959 102.503 40.0361C102.599 39.7764 102.665 39.512 102.701 39.2432C102.738 38.9743 102.756 38.6872 102.756 38.3818C102.756 38.0811 102.735 37.7962 102.694 37.5273C102.658 37.2585 102.592 36.9941 102.496 36.7344C102.4 36.4746 102.277 36.2536 102.127 36.0713C101.981 35.8844 101.787 35.734 101.546 35.6201C101.309 35.5062 101.038 35.4492 100.732 35.4492ZM104.984 38.457C104.984 37.304 105.217 36.3971 105.682 35.7363C106.146 35.071 106.807 34.7383 107.664 34.7383C108.708 34.7383 109.414 35.1507 109.783 35.9756V31.7988H110.761V41.875H109.981L109.852 40.6992C109.674 41.1094 109.389 41.4352 108.997 41.6768C108.61 41.9183 108.174 42.0391 107.691 42.0391C106.853 42.0391 106.192 41.7132 105.709 41.0615C105.226 40.4053 104.984 39.5371 104.984 38.457ZM107.814 41.3213C108.02 41.3213 108.204 41.3053 108.368 41.2734C108.532 41.237 108.71 41.1618 108.901 41.0479C109.093 40.9294 109.252 40.7721 109.38 40.5762C109.507 40.3757 109.612 40.0954 109.694 39.7354C109.781 39.3753 109.824 38.9515 109.824 38.4639C109.824 37.8714 109.758 37.3564 109.626 36.9189C109.498 36.4814 109.28 36.1283 108.97 35.8594C108.66 35.5859 108.27 35.4492 107.801 35.4492C107.222 35.4492 106.773 35.7249 106.454 36.2764C106.135 36.8232 105.976 37.5592 105.976 38.4844C105.976 39.3138 106.14 39.9951 106.468 40.5283C106.796 41.057 107.245 41.3213 107.814 41.3213ZM112.579 33.3848V32.1611H113.543V33.3848H112.579ZM112.593 41.875V34.8818H113.563V41.875H112.593ZM115.327 41.875V34.8818H116.271C116.271 34.9365 116.271 35.0094 116.271 35.1006C116.271 35.1917 116.271 35.3353 116.271 35.5312C116.271 35.7227 116.271 35.8822 116.271 36.0098V36.2012C116.357 35.9505 116.492 35.7295 116.674 35.5381C116.856 35.3421 117.061 35.1895 117.289 35.0801C117.521 34.9661 117.758 34.8818 118 34.8271C118.242 34.7679 118.481 34.7383 118.718 34.7383C118.987 34.7383 119.23 34.7633 119.449 34.8135C119.673 34.8636 119.862 34.9388 120.017 35.0391C120.172 35.1348 120.308 35.2419 120.427 35.3604C120.545 35.4743 120.641 35.6156 120.714 35.7842C120.787 35.9528 120.846 36.1146 120.892 36.2695C120.942 36.4199 120.978 36.5977 121.001 36.8027C121.024 37.0078 121.037 37.1878 121.042 37.3428C121.051 37.4977 121.056 37.6777 121.056 37.8828V41.875H120.085V37.7529C120.085 37.4613 120.071 37.2061 120.044 36.9873C120.021 36.7686 119.976 36.5635 119.907 36.3721C119.839 36.1807 119.748 36.0257 119.634 35.9072C119.524 35.7842 119.381 35.6885 119.203 35.6201C119.03 35.5518 118.823 35.5176 118.581 35.5176C118.23 35.5176 117.92 35.5677 117.651 35.668C117.387 35.7682 117.168 35.9049 116.995 36.0781C116.826 36.2513 116.69 36.4655 116.585 36.7207C116.48 36.9759 116.405 37.2448 116.359 37.5273C116.318 37.8053 116.298 38.1175 116.298 38.4639V41.875H115.327ZM127.475 38.1631C127.475 37.7165 127.427 37.3245 127.331 36.9873C127.235 36.6455 127.117 36.3812 126.976 36.1943C126.839 36.0029 126.673 35.8503 126.477 35.7363C126.285 35.6178 126.105 35.5404 125.937 35.5039C125.772 35.4674 125.602 35.4492 125.424 35.4492C125.091 35.4492 124.797 35.529 124.542 35.6885C124.287 35.8434 124.084 36.0553 123.934 36.3242C123.788 36.5931 123.678 36.8893 123.605 37.2129C123.533 37.5365 123.496 37.8828 123.496 38.252C123.496 39.2318 123.665 39.9883 124.002 40.5215C124.344 41.0547 124.806 41.3213 125.39 41.3213C125.595 41.3213 125.786 41.3008 125.964 41.2598C126.142 41.2142 126.326 41.1276 126.518 41C126.709 40.8724 126.871 40.7061 127.003 40.501C127.14 40.2913 127.251 40.0065 127.338 39.6465C127.429 39.2865 127.475 38.8695 127.475 38.3955V38.1631ZM125.485 44.8076C124.273 44.8076 123.446 44.4385 123.004 43.7002L123.571 43.1602C123.945 43.7617 124.599 44.0625 125.533 44.0625C126.185 44.0625 126.67 43.8551 126.989 43.4404C127.313 43.0257 127.475 42.4401 127.475 41.6836V40.9863C126.941 41.6882 126.235 42.0391 125.355 42.0391C124.462 42.0391 123.767 41.695 123.271 41.0068C122.774 40.3141 122.525 39.4049 122.525 38.2793C122.525 37.5911 122.628 36.985 122.833 36.4609C123.043 35.9323 123.359 35.513 123.783 35.2031C124.207 34.8932 124.717 34.7383 125.314 34.7383C126.221 34.7383 126.966 35.0869 127.55 35.7842L127.604 34.8818H128.384V41.7383C128.384 42.6452 128.133 43.3835 127.632 43.9531C127.135 44.5228 126.42 44.8076 125.485 44.8076ZM136.553 31.7441C137.359 31.7441 138.041 31.8786 138.597 32.1475C139.157 32.4163 139.636 32.8538 140.032 33.46L139.294 34.0068C139.025 33.5329 138.663 33.1729 138.207 32.9268C137.751 32.6761 137.248 32.5508 136.696 32.5508C135.981 32.5508 135.397 32.6829 134.946 32.9473C134.495 33.2116 134.27 33.6172 134.27 34.1641C134.27 34.3783 134.317 34.5742 134.413 34.752C134.509 34.9297 134.623 35.0755 134.755 35.1895C134.892 35.3034 135.072 35.415 135.295 35.5244C135.523 35.6338 135.726 35.7181 135.903 35.7773C136.086 35.8366 136.311 35.9095 136.58 35.9961C136.849 36.0827 137.056 36.1533 137.202 36.208C137.507 36.3265 137.758 36.4268 137.954 36.5088C138.15 36.5863 138.367 36.6842 138.604 36.8027C138.84 36.9212 139.032 37.0329 139.178 37.1377C139.324 37.238 139.472 37.361 139.622 37.5068C139.772 37.6527 139.886 37.8053 139.964 37.9648C140.046 38.1243 140.112 38.3089 140.162 38.5186C140.217 38.7236 140.244 38.9469 140.244 39.1885C140.244 40.0863 139.907 40.7881 139.232 41.2939C138.562 41.7952 137.662 42.0459 136.532 42.0459C136.209 42.0459 135.887 42.0186 135.568 41.9639C135.254 41.9092 134.933 41.8158 134.604 41.6836C134.281 41.5514 133.989 41.3851 133.729 41.1846C133.47 40.984 133.24 40.7243 133.039 40.4053C132.843 40.0863 132.709 39.7262 132.636 39.3252L133.477 38.9629C133.682 39.7148 134.039 40.2731 134.55 40.6377C135.065 41.0023 135.746 41.1846 136.594 41.1846C136.854 41.1846 137.102 41.1663 137.339 41.1299C137.576 41.0889 137.808 41.0205 138.036 40.9248C138.269 40.8291 138.469 40.7106 138.638 40.5693C138.806 40.4235 138.941 40.2367 139.041 40.0088C139.146 39.7764 139.198 39.5143 139.198 39.2227C139.198 39.0358 139.173 38.8649 139.123 38.71C139.073 38.555 139.021 38.4229 138.966 38.3135C138.911 38.1995 138.802 38.0833 138.638 37.9648C138.474 37.8464 138.344 37.7552 138.248 37.6914C138.152 37.623 137.968 37.5342 137.694 37.4248C137.421 37.3154 137.216 37.238 137.079 37.1924C136.947 37.1423 136.696 37.0534 136.327 36.9258C136.268 36.903 136.222 36.887 136.19 36.8779C135.379 36.5954 134.814 36.3652 134.495 36.1875C133.761 35.7819 133.344 35.2487 133.244 34.5879C133.23 34.4785 133.224 34.3646 133.224 34.2461C133.224 33.8314 133.317 33.46 133.504 33.1318C133.691 32.8037 133.941 32.5417 134.256 32.3457C134.575 32.1452 134.928 31.9948 135.315 31.8945C135.707 31.7943 136.12 31.7441 136.553 31.7441ZM144.284 34.7383C145.182 34.7383 145.907 35.0482 146.458 35.668C147.009 36.2832 147.285 37.1833 147.285 38.3682C147.285 39.5439 147.014 40.4508 146.472 41.0889C145.934 41.7223 145.202 42.0391 144.277 42.0391C143.352 42.0391 142.618 41.7246 142.076 41.0957C141.538 40.4622 141.27 39.5599 141.27 38.3887C141.27 37.1947 141.545 36.2878 142.097 35.668C142.648 35.0482 143.377 34.7383 144.284 34.7383ZM144.277 35.4492C143.895 35.4492 143.566 35.5335 143.293 35.7021C143.02 35.8662 142.81 36.0941 142.664 36.3857C142.523 36.6774 142.42 36.985 142.356 37.3086C142.293 37.6322 142.261 37.9854 142.261 38.3682C142.261 38.6735 142.279 38.9606 142.315 39.2295C142.352 39.4984 142.418 39.765 142.514 40.0293C142.609 40.2891 142.73 40.5124 142.876 40.6992C143.026 40.8861 143.22 41.0365 143.457 41.1504C143.699 41.2643 143.974 41.3213 144.284 41.3213C144.59 41.3213 144.861 41.2643 145.098 41.1504C145.339 41.0365 145.533 40.8883 145.679 40.7061C145.829 40.5192 145.952 40.2959 146.048 40.0361C146.144 39.7764 146.21 39.512 146.246 39.2432C146.283 38.9743 146.301 38.6872 146.301 38.3818C146.301 38.0811 146.28 37.7962 146.239 37.5273C146.203 37.2585 146.137 36.9941 146.041 36.7344C145.945 36.4746 145.822 36.2536 145.672 36.0713C145.526 35.8844 145.332 35.734 145.091 35.6201C144.854 35.5062 144.583 35.4492 144.277 35.4492ZM148.83 41.875V31.7988H149.801V41.875H148.83ZM156.343 38.8945V34.8818H157.313V41.875H156.37V40.5625C156.188 41.0456 155.862 41.4124 155.393 41.6631C154.928 41.9137 154.436 42.0391 153.916 42.0391C153.62 42.0391 153.351 42.0026 153.109 41.9297C152.872 41.8613 152.674 41.7725 152.515 41.6631C152.36 41.5492 152.223 41.4056 152.104 41.2324C151.991 41.0547 151.902 40.8815 151.838 40.7129C151.779 40.5443 151.731 40.346 151.694 40.1182C151.658 39.8857 151.635 39.6829 151.626 39.5098C151.617 39.332 151.612 39.127 151.612 38.8945V34.8818H152.583V39.0996C152.583 39.8197 152.695 40.3643 152.918 40.7334C153.141 41.098 153.531 41.2803 154.087 41.2803C154.429 41.2803 154.736 41.2233 155.01 41.1094C155.283 40.9954 155.5 40.8542 155.659 40.6855C155.823 40.5124 155.958 40.3164 156.062 40.0977C156.172 39.8743 156.245 39.6647 156.281 39.4688C156.322 39.2682 156.343 39.0768 156.343 38.8945ZM162.488 41.0205L162.652 41.6562C162.311 41.875 161.91 41.9844 161.449 41.9844C160.848 41.9844 160.41 41.8021 160.137 41.4375C159.868 41.0684 159.733 40.4736 159.733 39.6533V35.5586H158.688V34.8818H159.795V32.6465L160.704 32.3936V34.8818H162.235V35.5586H160.704V40.0908C160.704 40.8656 161.019 41.2529 161.647 41.2529C161.857 41.2529 162.137 41.1755 162.488 41.0205ZM163.753 33.3848V32.1611H164.717V33.3848H163.753ZM163.767 41.875V34.8818H164.737V41.875H163.767ZM169.276 34.7383C170.174 34.7383 170.899 35.0482 171.45 35.668C172.002 36.2832 172.277 37.1833 172.277 38.3682C172.277 39.5439 172.006 40.4508 171.464 41.0889C170.926 41.7223 170.195 42.0391 169.27 42.0391C168.344 42.0391 167.611 41.7246 167.068 41.0957C166.531 40.4622 166.262 39.5599 166.262 38.3887C166.262 37.1947 166.537 36.2878 167.089 35.668C167.64 35.0482 168.369 34.7383 169.276 34.7383ZM169.27 35.4492C168.887 35.4492 168.559 35.5335 168.285 35.7021C168.012 35.8662 167.802 36.0941 167.656 36.3857C167.515 36.6774 167.412 36.985 167.349 37.3086C167.285 37.6322 167.253 37.9854 167.253 38.3682C167.253 38.6735 167.271 38.9606 167.308 39.2295C167.344 39.4984 167.41 39.765 167.506 40.0293C167.602 40.2891 167.722 40.5124 167.868 40.6992C168.019 40.8861 168.212 41.0365 168.449 41.1504C168.691 41.2643 168.966 41.3213 169.276 41.3213C169.582 41.3213 169.853 41.2643 170.09 41.1504C170.331 41.0365 170.525 40.8883 170.671 40.7061C170.821 40.5192 170.944 40.2959 171.04 40.0361C171.136 39.7764 171.202 39.512 171.238 39.2432C171.275 38.9743 171.293 38.6872 171.293 38.3818C171.293 38.0811 171.272 37.7962 171.231 37.5273C171.195 37.2585 171.129 36.9941 171.033 36.7344C170.938 36.4746 170.814 36.2536 170.664 36.0713C170.518 35.8844 170.325 35.734 170.083 35.6201C169.846 35.5062 169.575 35.4492 169.27 35.4492ZM173.774 41.875V34.8818H174.718C174.718 34.9365 174.718 35.0094 174.718 35.1006C174.718 35.1917 174.718 35.3353 174.718 35.5312C174.718 35.7227 174.718 35.8822 174.718 36.0098V36.2012C174.804 35.9505 174.939 35.7295 175.121 35.5381C175.303 35.3421 175.508 35.1895 175.736 35.0801C175.969 34.9661 176.206 34.8818 176.447 34.8271C176.689 34.7679 176.928 34.7383 177.165 34.7383C177.434 34.7383 177.678 34.7633 177.896 34.8135C178.12 34.8636 178.309 34.9388 178.464 35.0391C178.619 35.1348 178.756 35.2419 178.874 35.3604C178.993 35.4743 179.088 35.6156 179.161 35.7842C179.234 35.9528 179.293 36.1146 179.339 36.2695C179.389 36.4199 179.425 36.5977 179.448 36.8027C179.471 37.0078 179.485 37.1878 179.489 37.3428C179.498 37.4977 179.503 37.6777 179.503 37.8828V41.875H178.532V37.7529C178.532 37.4613 178.519 37.2061 178.491 36.9873C178.468 36.7686 178.423 36.5635 178.354 36.3721C178.286 36.1807 178.195 36.0257 178.081 35.9072C177.972 35.7842 177.828 35.6885 177.65 35.6201C177.477 35.5518 177.27 35.5176 177.028 35.5176C176.677 35.5176 176.368 35.5677 176.099 35.668C175.834 35.7682 175.616 35.9049 175.442 36.0781C175.274 36.2513 175.137 36.4655 175.032 36.7207C174.927 36.9759 174.852 37.2448 174.807 37.5273C174.766 37.8053 174.745 38.1175 174.745 38.4639V41.875H173.774ZM186.079 36.0918C185.637 36.3424 185.416 36.4701 185.416 36.4746C185.261 36.1191 185.045 35.8639 184.767 35.709C184.489 35.5495 184.122 35.4697 183.666 35.4697C183.101 35.4697 182.673 35.5723 182.381 35.7773C182.089 35.9824 181.943 36.2855 181.943 36.6865C181.943 36.846 181.973 36.9873 182.032 37.1104C182.096 37.2334 182.176 37.3359 182.271 37.418C182.372 37.4954 182.506 37.5684 182.675 37.6367C182.843 37.7005 183.005 37.7507 183.16 37.7871C183.32 37.8236 183.518 37.8646 183.755 37.9102C184.548 38.056 185.143 38.2839 185.539 38.5938C185.94 38.8991 186.141 39.3411 186.141 39.9199C186.141 40.6081 185.91 41.1344 185.45 41.499C184.99 41.859 184.297 42.0391 183.372 42.0391C183.094 42.0391 182.825 42.0094 182.565 41.9502C182.31 41.8955 182.062 41.8066 181.82 41.6836C181.583 41.556 181.374 41.3783 181.191 41.1504C181.009 40.918 180.875 40.6468 180.788 40.3369L181.526 40.0361C181.69 40.4827 181.918 40.8063 182.21 41.0068C182.502 41.2074 182.919 41.3076 183.461 41.3076C184.66 41.3076 185.259 40.9066 185.259 40.1045C185.259 39.667 185.122 39.3594 184.849 39.1816C184.575 38.9993 183.999 38.8171 183.119 38.6348C182.855 38.5801 182.632 38.5254 182.449 38.4707C182.271 38.4115 182.085 38.3317 181.889 38.2314C181.697 38.1312 181.542 38.0173 181.424 37.8896C181.31 37.7575 181.214 37.5889 181.137 37.3838C181.064 37.1787 181.027 36.9417 181.027 36.6729C181.027 36.0576 181.264 35.5814 181.738 35.2441C182.217 34.9069 182.841 34.7383 183.611 34.7383C184.231 34.7383 184.737 34.8408 185.129 35.0459C185.521 35.251 185.838 35.5996 186.079 36.0918Z" fill="black"/>
</svg>
